<svg id="Layer_1" data-name="Layer 1" xmlns="http://www.w3.org/2000/svg" xmlns:xlink="http://www.w3.org/1999/xlink" width="174" height="173" viewBox="0 0 174 173"><defs><linearGradient id="linear-gradient" x1="13" y1="86" x2="157" y2="86" gradientUnits="userSpaceOnUse"><stop offset="0" stop-color="#8c8c8c"/><stop offset="0.5"/></linearGradient></defs><title>icon</title><path d="M85,14a72,72,0,1,0,72,72A72,72,0,0,0,85,14Zm0,139.91A67.91,67.91,0,1,1,152.9,86,68,68,0,0,1,85,153.91Zm34.09-85.33a3.56,3.56,0,0,0-2.91-1.52H56.91A36.83,36.83,0,0,0,39.53,50.29a3.56,3.56,0,1,0-3,6.45A29.91,29.91,0,0,1,51.79,73l13.29,34a3.55,3.55,0,0,0,3.31,2.25h34.8a3.55,3.55,0,0,0,3.34-2.32l13-35.07A3.58,3.58,0,0,0,119.09,68.58Zm-10.81,9.07L83.45,102.48a.57.57,0,0,1-.83,0L66.34,86.21a.59.59,0,0,1,0-.83l3.81-3.8a.57.57,0,0,1,.83,0l12,12a.13.13,0,0,0,.18,0L103.65,73a.59.59,0,0,1,.83,0l3.8,3.81A.57.57,0,0,1,108.28,77.65ZM71.66,131.36a9.3,9.3,0,1,1,9.3-9.3A9.31,9.31,0,0,1,71.66,131.36Zm28.07,0a9.3,9.3,0,1,1,9.29-9.3A9.31,9.31,0,0,1,99.73,131.36Z" style="fill:url(#linear-gradient)"/></svg>